<?xml version="1.0" standalone="no"?>
<!DOCTYPE svg PUBLIC "-//W3C//DTD SVG 20010904//EN"
 "http://www.w3.org/TR/2001/REC-SVG-20010904/DTD/svg10.dtd">
<svg version="1.0" xmlns="http://www.w3.org/2000/svg"
 width="2048.000000pt" height="2048.000000pt" viewBox="0 0 2048.000000 2048.000000"
 preserveAspectRatio="xMidYMid meet">

<g transform="translate(0.000000,2048.000000) scale(0.100000,-0.100000)"
fill="#000000" stroke="none">
<path d="M9821 20470 c-1077 -46 -2088 -243 -3076 -600 -373 -135 -678 -266
-1060 -455 -829 -411 -1563 -908 -2280 -1543 -189 -168 -678 -661 -846 -853
-812 -930 -1397 -1886 -1851 -3024 -93 -235 -246 -687 -316 -935 -542 -1922
-517 -3950 72 -5846 298 -959 755 -1900 1321 -2724 649 -943 1402 -1728 2318
-2416 1764 -1325 3898 -2035 6120 -2034 2352 1 4585 788 6415 2263 467 376
997 895 1398 1367 347 408 712 924 998 1408 194 328 448 832 594 1177 662
1562 923 3232 771 4930 -239 2689 -1543 5175 -3627 6917 -1554 1299 -3452
2105 -5461 2318 -445 47 -1073 68 -1490 50z m5079 -7503 c402 -61 714 -159
1045 -327 440 -223 796 -512 1104 -899 375 -471 605 -1024 687 -1656 24 -180
24 -590 0 -770 -83 -634 -313 -1184 -699 -1668 -485 -609 -1172 -1026 -1937
-1176 -272 -54 -631 -74 -895 -52 -568 50 -1093 231 -1550 536 -215 143 -327
236 -520 429 -184 185 -319 352 -441 544 l-78 122 -1346 0 -1345 0 -55 -91
c-30 -50 -100 -151 -155 -224 -432 -576 -1011 -981 -1695 -1188 -335 -102
-659 -144 -1030 -134 -227 6 -363 21 -575 64 -493 98 -1002 338 -1405 662
-138 112 -394 368 -504 506 -400 503 -642 1098 -707 1740 -16 164 -13 516 6
680 74 632 312 1205 704 1695 95 118 307 337 426 440 493 422 1082 683 1745
770 128 17 366 18 4620 16 4222 -1 4492 -3 4600 -19z"/>
<path d="M14611 11630 c-162 -43 -299 -155 -369 -302 -46 -96 -62 -161 -62
-258 0 -97 16 -162 62 -258 135 -284 486 -401 776 -260 97 47 210 161 257 259
38 81 65 187 65 259 0 72 -27 178 -65 259 -47 98 -160 212 -257 259 -128 62
-272 77 -407 42z"/>
<path d="M5530 10860 l0 -540 -560 0 -560 0 0 -415 0 -415 560 0 560 0 0 -540
0 -540 415 0 415 0 0 540 0 540 518 2 517 3 3 413 2 412 -520 0 -520 0 0 540
0 540 -415 0 -415 0 0 -540z"/>
<path d="M8820 10240 l0 -120 395 0 395 0 0 120 0 120 -395 0 -395 0 0 -120z"/>
<path d="M10980 10240 l0 -120 395 0 395 0 0 120 0 120 -395 0 -395 0 0 -120z"/>
<path d="M13296 10305 c-205 -56 -377 -240 -417 -443 -16 -86 -7 -232 20 -306
132 -373 582 -509 896 -273 280 210 308 623 59 871 -68 69 -168 127 -260 151
-71 18 -230 18 -298 0z"/>
<path d="M15933 10306 c-180 -44 -345 -197 -410 -380 -102 -292 68 -630 369
-732 162 -55 361 -30 498 63 119 80 210 207 245 339 19 73 19 222 0 294 -53
200 -218 363 -420 415 -71 18 -209 18 -282 1z"/>
<path d="M14620 8994 c-99 -26 -180 -74 -260 -154 -126 -126 -176 -256 -168
-435 8 -155 59 -273 165 -378 229 -226 589 -230 814 -7 119 118 172 243 172
410 1 89 -3 117 -27 185 -65 190 -214 331 -402 379 -76 20 -220 20 -294 0z"/>
</g>
</svg>
